<?xml version="1.0" encoding="utf-8"?>
<!-- Uploaded to: SVG Repo, www.svgrepo.com, Generator: SVG Repo Mixer Tools -->
<svg width="800px" height="800px" viewBox="0 0 1024 1024" fill="#000000" class="icon"  version="1.1" xmlns="http://www.w3.org/2000/svg"><path d="M248.954 535.284a136.326 136.326 0 0 1-74.346-22.008c-30.744-19.924-51.838-50.536-59.394-86.206-7.542-35.6-0.704-72.042 19.252-102.624a136.98 136.98 0 0 1 28.658-31.782 8.01 8.01 0 0 1 11.25 1.196 8.012 8.012 0 0 1-1.194 11.248 120.438 120.438 0 0 0-25.318 28.074c-17.622 26.996-23.656 59.162-17.004 90.576 6.666 31.478 25.294 58.506 52.448 76.102 55.858 36.216 130.868 20.362 167.154-35.35a7.98 7.98 0 0 1 11.062-2.334 7.992 7.992 0 0 1 2.334 11.062c-26.17 40.17-70.106 62.046-114.902 62.046zM861.124 374.146a7.986 7.986 0 0 1-7.76-9.914c4.386-17.708 4.668-35.842 0.828-53.906-13.802-64.978-78.024-106.636-143.242-92.866-4.214 0.914-8.556-1.826-9.476-6.166a7.996 7.996 0 0 1 6.166-9.478c73.838-15.598 146.552 31.588 162.198 105.184 4.34 20.454 4.028 41.01-0.954 61.072a8 8 0 0 1-7.76 6.074z" fill="" /><path d="M784.804 224.316a7.992 7.992 0 0 1-7.994-8.558c0.766-10.828-0.046-21.938-2.404-33.032-13.13-61.792-70.436-102.496-133.06-94.596-4.326 0.454-8.386-2.552-8.932-6.942a7.994 7.994 0 0 1 6.932-8.922c71.23-8.892 135.84 37.184 150.706 107.132 2.67 12.554 3.576 25.162 2.716 37.482a7.994 7.994 0 0 1-7.964 7.436zM387.814 566.104c-39.324 0-79.788-9.852-112.052-36.458a7.982 7.982 0 0 1-1.084-11.25 7.984 7.984 0 0 1 11.25-1.086c50.652 41.752 130.634 38.644 187.43 17.02 34.436-13.11 51.752-29.628 53.274-39.434 0.68-4.364 4.874-7.298 9.12-6.674a8 8 0 0 1 6.684 9.124c-2.876 18.494-26.568 37.904-63.384 51.924-25.886 9.854-58.16 16.834-91.238 16.834z" fill="" /><path d="M329.168 225.768a8.01 8.01 0 0 1-7.816-6.33c-10.078-47.404-1.124-95.83 25.216-136.364 26.442-40.676 67.288-68.638 114.996-78.726 98.18-20.758 194.862 41.986 215.674 139.798a8 8 0 0 1-6.152 9.486c-4.214 0.92-8.57-1.828-9.492-6.16-18.97-89.208-107.252-146.418-196.718-127.478-43.532 9.204-80.786 34.702-104.894 71.792-24.022 36.952-32.18 81.1-22.982 124.326a8.008 8.008 0 0 1-6.16 9.484 8.24 8.24 0 0 1-1.672 0.172zM638.02 557.112c-42.392 0-82.348-15.038-115.3-43.922a7.996 7.996 0 0 1-0.742-11.282c2.912-3.334 7.948-3.646 11.29-0.742 39.02 34.21 88.842 47.044 140.37 36.162 25.418-5.402 48.496-16.186 68.59-32.056a7.986 7.986 0 0 1 11.226 1.32 8.004 8.004 0 0 1-1.326 11.234c-22.032 17.394-47.326 29.228-75.182 35.146-13.102 2.764-26.124 4.14-38.926 4.14z" fill="" /><path d="M199.512 391.104a7.994 7.994 0 0 1-6.52-3.358c-14.426-20.282-24.396-43.024-29.626-67.6-10.078-47.436-1.116-95.884 25.24-136.418 26.442-40.666 67.272-68.608 114.964-78.686a187.796 187.796 0 0 1 37.73-4.014h0.04a7.996 7.996 0 0 1 0.038 15.99 171.248 171.248 0 0 0-34.498 3.67c-43.516 9.188-80.764 34.678-104.872 71.754-24.03 36.958-32.196 81.128-23 124.378 4.77 22.422 13.856 43.164 27.004 61.652a7.996 7.996 0 0 1-6.5 12.632zM795.062 526.468c-28.134 0-49.962-7.184-50.462-7.356a7.994 7.994 0 0 1-4.996-10.124c1.436-4.194 6.01-6.426 10.132-5.012 4.028 1.342 98.602 32.18 137.636-47.928 29.212-59.988-28.262-124.606-28.856-125.254a7.996 7.996 0 0 1 0.578-11.29 7.98 7.98 0 0 1 11.29 0.562c2.67 2.966 65.25 73.384 31.352 142.984-25.278 51.896-71.028 63.418-106.674 63.418zM248.156 815.77c-39.674 0-71.948-32.274-71.948-71.95 0-23.794 12.14-46.186 31.978-59.504v-4.452a7.988 7.988 0 0 1 7.994-7.992h63.954a7.988 7.988 0 0 1 7.994 7.992v4.452c19.836 13.302 31.978 35.708 31.978 59.504 0 39.676-32.274 71.95-71.95 71.95z m-23.982-127.908v0.874a8.02 8.02 0 0 1-3.974 6.918c-17.534 10.196-28.002 28.198-28.002 48.168 0 30.854 25.108 55.96 55.96 55.96 30.854 0 55.96-25.108 55.96-55.96 0-19.97-10.47-37.988-28.004-48.168a8.026 8.026 0 0 1-3.974-6.918v-0.874h-47.966z" fill="" /><path d="M280.134 687.862H216.18a7.99 7.99 0 0 1-7.994-7.996V631.9c0-2.124 0.842-4.152 2.342-5.652l15.988-15.988a7.988 7.988 0 0 1 5.652-2.342h31.976a7.98 7.98 0 0 1 5.652 2.342l15.988 15.988a7.988 7.988 0 0 1 2.342 5.652v47.964a7.988 7.988 0 0 1-7.992 7.998z m-55.96-15.988h47.964v-36.662l-11.304-11.304h-25.356l-11.304 11.304v36.662z" fill="" /><path d="M280.134 655.882H216.18a7.988 7.988 0 0 1-7.994-7.994 7.99 7.99 0 0 1 7.994-7.994h63.954a7.99 7.99 0 0 1 7.994 7.994 7.988 7.988 0 0 1-7.994 7.994zM248.156 719.838a7.978 7.978 0 0 1-5.652-2.342l-15.988-15.988c-3.124-3.124-3.124-8.182 0-11.304s8.182-3.124 11.304 0l10.336 10.336 10.336-10.336c3.124-3.124 8.182-3.124 11.304 0s3.124 8.182 0 11.304l-15.988 15.988a7.97 7.97 0 0 1-5.652 2.342z" fill="" /><path d="M232.168 751.814a7.988 7.988 0 0 1-7.994-7.994v-47.964a7.988 7.988 0 0 1 7.994-7.994 7.988 7.988 0 0 1 7.994 7.994v47.964a7.988 7.988 0 0 1-7.994 7.994zM264.144 751.814a7.988 7.988 0 0 1-7.994-7.994v-47.964a7.988 7.988 0 0 1 7.994-7.994 7.988 7.988 0 0 1 7.994 7.994v47.964a7.988 7.988 0 0 1-7.994 7.994z" fill="" /><path d="M248.156 623.906a7.99 7.99 0 0 1-7.994-7.994v-63.956a7.99 7.99 0 0 1 7.994-7.994 7.99 7.99 0 0 1 7.994 7.994v63.956a7.988 7.988 0 0 1-7.994 7.994z" fill="" /><path d="M775.78 783.792c-39.674 0-71.95-32.274-71.95-71.948 0-23.794 12.148-46.186 31.978-59.504v-4.452a7.99 7.99 0 0 1 7.994-7.994h63.954a7.99 7.99 0 0 1 7.996 7.994v4.452c19.828 13.302 31.976 35.708 31.976 59.504 0 39.674-32.272 71.948-71.948 71.948z m-23.984-127.91v0.876c0 2.842-1.514 5.48-3.982 6.916-17.534 10.198-27.994 28.2-27.994 48.17 0 30.854 25.108 55.958 55.958 55.958 30.854 0 55.96-25.106 55.96-55.958 0-19.97-10.46-37.988-27.996-48.17a8.008 8.008 0 0 1-3.98-6.916v-0.876h-47.966z" fill="" /><path d="M807.756 655.882h-63.954a7.988 7.988 0 0 1-7.994-7.994v-47.964a7.98 7.98 0 0 1 2.342-5.652l15.988-15.988a7.99 7.99 0 0 1 5.652-2.344h31.976c2.124 0 4.154 0.844 5.652 2.344l15.988 15.988a7.982 7.982 0 0 1 2.344 5.652v47.964a7.986 7.986 0 0 1-7.994 7.994z m-55.96-15.988h47.966v-36.662l-11.304-11.302H763.1l-11.304 11.302v36.662z" fill="" /><path d="M807.756 623.906h-63.954c-4.418 0-7.994-3.576-7.994-7.994s3.576-7.994 7.994-7.994h63.954c4.42 0 7.996 3.576 7.996 7.994s-3.576 7.994-7.996 7.994zM775.78 687.862a7.97 7.97 0 0 1-5.652-2.344l-15.988-15.988a7.992 7.992 0 1 1 11.304-11.304l10.336 10.338 10.336-10.338a7.992 7.992 0 0 1 11.304 0 7.988 7.988 0 0 1 0 11.304l-15.988 15.988a7.964 7.964 0 0 1-5.652 2.344z" fill="" /><path d="M759.792 719.838a7.99 7.99 0 0 1-7.994-7.994v-47.966c0-4.418 3.576-7.994 7.994-7.994s7.994 3.576 7.994 7.994v47.966a7.992 7.992 0 0 1-7.994 7.994zM791.768 719.838a7.99 7.99 0 0 1-7.994-7.994v-47.966a7.99 7.99 0 0 1 7.994-7.994 7.99 7.99 0 0 1 7.996 7.994v47.966a7.99 7.99 0 0 1-7.996 7.994z" fill="" /><path d="M775.78 591.93a7.99 7.99 0 0 1-7.994-7.994v-31.978a7.99 7.99 0 0 1 7.994-7.994 7.988 7.988 0 0 1 7.994 7.994v31.978a7.988 7.988 0 0 1-7.994 7.994z" fill="" /><path d="M503.974 943.678c-39.676 0-71.95-32.274-71.95-71.95 0-23.794 12.14-46.186 31.976-59.504v-4.45a7.99 7.99 0 0 1 7.994-7.994h63.956a7.99 7.99 0 0 1 7.994 7.994v4.45c19.83 13.302 31.976 35.708 31.976 59.504 0.002 39.676-32.272 71.95-71.946 71.95z m-23.982-127.908v0.874a8.02 8.02 0 0 1-3.974 6.918c-17.536 10.196-28.004 28.2-28.004 48.168 0 30.854 25.108 55.96 55.96 55.96s55.958-25.108 55.958-55.96c0-19.968-10.46-37.988-27.994-48.168a8.01 8.01 0 0 1-3.982-6.918v-0.874h-47.964z" fill="" /><path d="M535.952 815.77h-63.956a7.99 7.99 0 0 1-7.994-7.994v-47.964c0-2.124 0.844-4.154 2.342-5.652l15.988-15.99a7.992 7.992 0 0 1 5.652-2.342h31.978c2.124 0 4.152 0.844 5.652 2.342l15.988 15.99a7.99 7.99 0 0 1 2.342 5.652v47.964a7.988 7.988 0 0 1-7.992 7.994z m-55.96-15.988h47.966V763.12l-11.304-11.304h-25.358l-11.304 11.304v36.662z" fill="" /><path d="M535.952 783.792h-63.956a7.988 7.988 0 0 1-7.994-7.992 7.99 7.99 0 0 1 7.994-7.996h63.956a7.99 7.99 0 0 1 7.994 7.996 7.99 7.99 0 0 1-7.994 7.992zM503.974 847.746a7.96 7.96 0 0 1-5.652-2.342l-15.99-15.988a7.992 7.992 0 1 1 11.304-11.304l10.336 10.336 10.336-10.336a7.992 7.992 0 1 1 11.304 11.304l-15.99 15.988a7.95 7.95 0 0 1-5.648 2.342z" fill="" /><path d="M487.986 879.724a7.99 7.99 0 0 1-7.994-7.996v-47.964c0-4.418 3.576-7.994 7.994-7.994s7.994 3.576 7.994 7.994v47.964a7.99 7.99 0 0 1-7.994 7.996zM519.962 879.724a7.99 7.99 0 0 1-7.994-7.996v-47.964c0-4.418 3.576-7.994 7.994-7.994s7.994 3.576 7.994 7.994v47.964a7.99 7.99 0 0 1-7.994 7.996z" fill="" /><path d="M503.974 751.814a7.99 7.99 0 0 1-7.996-7.994v-191.864a7.99 7.99 0 0 1 7.996-7.994 7.99 7.99 0 0 1 7.994 7.994v191.864a7.988 7.988 0 0 1-7.994 7.994z" fill="" /><path d="M647.872 879.708h-47.966a7.988 7.988 0 0 1-7.992-7.996 7.986 7.986 0 0 1 7.992-7.992h47.966a7.988 7.988 0 0 1 7.994 7.992 7.99 7.99 0 0 1-7.994 7.996z" fill="" /><path d="M408.042 879.708h-47.966a7.99 7.99 0 0 1-7.994-7.996 7.988 7.988 0 0 1 7.994-7.992h47.966a7.988 7.988 0 0 1 7.994 7.992 7.99 7.99 0 0 1-7.994 7.996z" fill="" /><path d="M402.218 981.462a7.96 7.96 0 0 1-5.652-2.342 7.988 7.988 0 0 1 0-11.304l33.928-33.912a7.988 7.988 0 0 1 11.304 0 7.988 7.988 0 0 1 0 11.304l-33.928 33.912a7.956 7.956 0 0 1-5.652 2.342z" fill="" /><path d="M503.974 1023.622a7.99 7.99 0 0 1-7.996-7.994v-47.964a7.99 7.99 0 0 1 7.996-7.996 7.99 7.99 0 0 1 7.994 7.996v47.964a7.992 7.992 0 0 1-7.994 7.994z" fill="" /><path d="M605.744 981.462a7.968 7.968 0 0 1-5.652-2.342l-33.928-33.912a7.988 7.988 0 0 1 0-11.304 7.988 7.988 0 0 1 11.304 0l33.928 33.912a7.988 7.988 0 0 1 0 11.304 7.95 7.95 0 0 1-5.652 2.342z" fill="" /></svg>