<?xml version="1.0" encoding="iso-8859-1"?>
<!-- Uploaded to: SVG Repo, www.svgrepo.com, Generator: SVG Repo Mixer Tools -->
<svg fill="#000000" height="800px" width="800px" version="1.1" id="Layer_1" xmlns="http://www.w3.org/2000/svg" xmlns:xlink="http://www.w3.org/1999/xlink" 
	 viewBox="0 0 196.119 196.119" xml:space="preserve">
<g>
	<g>
		<g>
			<path d="M160.46,110.441V53.487v-3.548V16.05C160.46,7.2,153.262,0,144.414,0c-8.848,0-16.046,7.199-16.046,16.05v33.889v3.548
				v56.954c-17.168,6.56-28.526,22.866-28.526,41.36c0,24.436,19.995,44.318,44.573,44.318s44.573-19.882,44.573-44.318
				C188.987,133.307,177.628,117.001,160.46,110.441z M135.5,28.526h7.132c1.971,0,3.566-1.597,3.566-3.566
				s-1.595-3.566-3.566-3.566H135.5V16.05c0-4.917,3.997-8.918,8.914-8.918c4.917,0,8.915,4.001,8.915,8.918v30.306H135.5V28.526z
				 M144.414,188.988c-20.646,0-37.441-16.682-37.441-37.187c0-16.252,10.464-30.491,26.04-35.432
				c1.48-0.47,2.486-1.844,2.486-3.399v-9.562h7.132c1.971,0,3.566-1.597,3.566-3.566s-1.595-3.566-3.566-3.566h-7.132V78.448h7.132
				c1.971,0,3.566-1.597,3.566-3.566c0-1.969-1.595-3.566-3.566-3.566h-7.132V53.505h17.829v59.466c0,1.555,1.006,2.929,2.486,3.399
				c15.576,4.941,26.04,19.18,26.04,35.432C181.855,172.306,165.06,188.988,144.414,188.988z"/>
			<path d="M21.394,3.566c-7.867,0-14.263,6.398-14.263,14.263s6.397,14.263,14.263,14.263c7.866,0,14.263-6.398,14.263-14.263
				S29.26,3.566,21.394,3.566z M21.394,24.961c-3.931,0-7.132-3.199-7.132-7.132c0-3.933,3.2-7.132,7.132-7.132
				s7.132,3.199,7.132,7.132C28.526,21.762,25.325,24.961,21.394,24.961z"/>
			<polygon points="46.355,24.875 39.223,24.875 39.223,24.961 39.223,32.092 39.223,60.619 39.223,67.75 39.223,106.974 
				46.355,106.974 46.355,67.75 96.401,67.75 96.401,60.619 46.355,60.619 46.355,32.092 96.401,32.092 96.401,24.961 
				46.355,24.961 			"/>
		</g>
	</g>
</g>
</svg>